<svg width="1200" height="800" xmlns="http://www.w3.org/2000/svg">
<rect x="50" y="50" width="200" height="70" fill="white" stroke="rgb(0, 119, 119)" stroke-width="4"/>
<text x="70" y="95" font-size="20" fill="black">User</text>

<rect x="450" y="50" width="300" height="100" fill="white" stroke="rgb(204, 0, 51)" stroke-width="4"/>
<text x="460" y="90" font-size="20" fill="black">ChaosOS Core</text>
<text x="460" y="115" font-size="16" fill="black">BRG + SCX + LifeVault</text>

<line x1="250" y1="85" x2="450" y2="85" stroke="black" stroke-width="3"/>
<polygon points="440,80 450,85 440,90" fill="black"/>

<rect x="950" y="50" width="200" height="150" fill="white" stroke="rgb(0, 119, 119)" stroke-width="4"/>
<text x="960" y="100" font-size="20" fill="black">Spokes</text>
<text x="960" y="130" font-size="16" fill="black">(33+ Agents)</text>

<line x1="750" y1="100" x2="950" y2="100" stroke="black" stroke-width="3"/>
<polygon points="940,95 950,100 940,105" fill="black"/>

<rect x="450" y="600" width="300" height="100" fill="white" stroke="rgb(0, 119, 119)" stroke-width="4"/>
<text x="460" y="640" font-size="20" fill="black">Outputs</text>
<text x="460" y="670" font-size="16" fill="black">Plans, Decisions, Safe Messages</text>

<line x1="600" y1="150" x2="600" y2="600" stroke="black" stroke-width="3"/>
<polygon points="595,590 600,600 605,590" fill="black"/>

</svg>
